<svg xmlns="http://www.w3.org/2000/svg" width="26" height="22" viewBox="0 0 26 22"><g><g><path  d="M25.663 1.687L21.9 20.297c-.275 1.318-1.072 1.634-2.176 1.025l-6.002-4.434a278.012 278.012 0 0 1-2.887 2.786c-.5.442-.684.618-1.166.612-.458-.007-.678-.286-.946-1.027l-2.207-6.767-5.77-1.8c-.931-.3-.971-1.543.288-1.907L24.06.068c1.056-.48 2.006.003 1.603 1.62zM9.65 18.912l.559-4.887 10.886-9.79c.291-.335.089-.818-.557-.385L7.42 12.08z"/><path  d="M25.663 1.687L21.9 20.297c-.275 1.318-1.072 1.634-2.176 1.025l-6.002-4.434a278.012 278.012 0 0 1-2.887 2.786c-.5.442-.684.618-1.166.612-.458-.007-.678-.286-.946-1.027l-2.207-6.767-5.77-1.8c-.931-.3-.971-1.543.288-1.907L24.06.068c1.056-.48 2.006.003 1.603 1.62zM9.65 18.912l.559-4.887 10.886-9.79c.291-.335.089-.818-.557-.385L7.42 12.08z"/></g></g></svg>
