<svg xmlns="http://www.w3.org/2000/svg" width="29" height="17" viewBox="0 0 29 17"><g><g><path fill="#fff" d="M14.306 16.828h1.724s.521-.057.788-.344c.245-.263.237-.757.237-.757s-.034-2.314 1.04-2.655c1.06-.336 2.42 2.237 3.86 3.226 1.09.748 1.919.585 1.919.585l3.854-.055s2.016-.124 1.06-1.709c-.079-.13-.557-1.172-2.866-3.315-2.417-2.243-2.093-1.88.818-5.76C28.513 3.683 29.222 2.24 29 1.623c-.21-.589-1.515-.433-1.515-.433l-4.34.027s-.321-.044-.56.099c-.233.14-.382.465-.382.465S21.516 3.61 20.6 5.163c-1.932 3.281-2.705 3.455-3.021 3.25-.735-.475-.551-1.907-.551-2.924 0-3.18.482-4.506-.94-4.849-.471-.114-.819-.189-2.025-.201-1.548-.016-2.859.005-3.6.368-.494.242-.875.78-.643.812.287.038.936.175 1.28.643.445.605.43 1.964.43 1.964s.255 3.742-.597 4.207c-.585.319-1.387-.332-3.11-3.309-.883-1.524-1.55-3.21-1.55-3.21s-.128-.314-.357-.483c-.278-.204-.666-.269-.666-.269l-4.124.027s-.62.017-.846.286c-.203.24-.017.735-.017.735s3.229 7.552 6.884 11.358c3.353 3.49 7.159 3.26 7.159 3.26z"/></g></g></svg>
