<svg xmlns="http://www.w3.org/2000/svg" width="27" height="20" viewBox="0 0 27 20"><g><g><path  d="M26.837 9.802c0 2.09-.003 4.304-.47 6.334-.327 1.425-1.493 2.476-2.896 2.632-3.322.371-6.685.373-10.034.371-3.348.002-6.712 0-10.034-.37C2 18.611.835 17.56.507 16.135c-.466-2.03-.466-4.244-.466-6.334S.046 5.498.513 3.47C.84 2.044 2.005.993 3.408.836c3.323-.37 6.686-.372 10.035-.37 3.348-.002 6.71 0 10.034.37 1.402.157 2.568 1.208 2.896 2.633.466 2.03.464 4.244.464 6.333zm-9.124-.062l-7.085-3.714v7.429z"/></g></g></svg>
