<svg xmlns="http://www.w3.org/2000/svg" viewBox="0 0 724 724"><filter id="b"><feGaussianBlur stdDeviation="12" /></filter><path fill="#333334" d="M0 0h724v724H0z"/><g filter="url(#b)" transform="translate(1.4 1.4) scale(2.82813)" fill-opacity=".5"><ellipse fill="#c3c9d3" rx="1" ry="1" transform="rotate(-63.8 218.1 -19.5) scale(86.81055 74.11729)"/><ellipse fill="#ffeecf" rx="1" ry="1" transform="matrix(-1.06918 -28.06594 26.59002 -1.01295 128.3 59.2)"/><ellipse rx="1" ry="1" transform="matrix(91.0842 -238.1778 49.80894 19.04799 34.2 76.8)"/><ellipse rx="1" ry="1" transform="matrix(-79.6454 -242.24287 68.95242 -22.6704 246.7 130.6)"/><path fill="#d2dce7" d="M220.8 163L193 100.2l-15 88.4 30.6 5z"/><ellipse fill="#53575f" rx="1" ry="1" transform="matrix(27.49476 -1.6094 4.46819 76.3338 71 175.5)"/><ellipse cx="5" cy="206" rx="52" ry="255"/><ellipse fill="#bdc4cd" cx="158" cy="250" rx="46" ry="46"/></g></svg>