<svg xmlns="http://www.w3.org/2000/svg" viewBox="0 0 724 724"><filter id="b"><feGaussianBlur stdDeviation="12" /></filter><path fill="#101013" d="M0 0h724v724H0z"/><g filter="url(#b)" transform="translate(1.4 1.4) scale(2.82813)" fill-opacity=".5"><ellipse fill="#e9d9dd" rx="1" ry="1" transform="rotate(-95.8 119.8 -8) scale(89.92062 16.62485)"/><ellipse fill="#2e3a50" rx="1" ry="1" transform="rotate(-7.1 1305.7 -806) scale(35.18393 74.37559)"/><ellipse fill="#fcffff" cx="151" cy="143" rx="6" ry="50"/><path fill="#f2b490" d="M155.2 25l-4 41-25-32.6 33.9-8.7z"/><ellipse rx="1" ry="1" transform="matrix(-56.66613 10.09795 -40.40884 -226.76016 213.7 63)"/><path d="M150-16L3 271-16-10zm17 79l-33 23-14-21z"/><path fill="#fff" d="M128.3 79.9l9.4 59.3-6 .9-9.4-59.3z"/></g></svg>