<svg xmlns="http://www.w3.org/2000/svg" viewBox="0 0 724 724"><filter id="c"><feGaussianBlur stdDeviation="55" /></filter><path fill="#2d2324" d="M0 0h724v724H0z"/><g filter='url(#c)' fill-opacity='.5'><ellipse fill="#fff" fill-opacity=".5" rx="1" ry="1" transform="matrix(63.97372 13.01124 -57.95006 284.92917 351.7 449.7)"/><ellipse fill="#fff" fill-opacity=".5" rx="1" ry="1" transform="matrix(-105.17434 -62.39558 21.62518 -36.45153 206.1 705.6)"/><path fill="#fff" fill-opacity=".5" d="M336.3 643.8l-87.9-39.1 113.9-255.8L450 388z"/><ellipse fill="#ffcbb9" fill-opacity=".5" rx="1" ry="1" transform="matrix(38.78798 96.48814 -58.4998 23.51677 350.3 228)"/><path fill-opacity=".5" d="M38.2 767.8l-82-760.7 410-51z"/><ellipse fill-opacity=".5" rx="1" ry="1" transform="matrix(128.94713 709.55022 -154.16344 28.01625 606.3 201.4)"/><ellipse fill="#fffdf5" fill-opacity=".5" rx="1" ry="1" transform="matrix(-20.65878 -17.8952 35.07365 -40.49013 501.8 669)"/><path fill="#ffdbce" fill-opacity=".5" d="M312.5 745.2L114.5 570l73.6 198z"/></g></svg>