<svg xmlns="http://www.w3.org/2000/svg" viewBox="0 0 724 724"><filter id="b"><feGaussianBlur stdDeviation="12" /></filter><path fill="#484248" d="M0 0h724v724H0z"/><g filter="url(#b)" transform="translate(1.4 1.4) scale(2.82813)" fill-opacity=".5"><ellipse fill="#fcffff" rx="1" ry="1" transform="matrix(-76.05734 4.13758 -4.05318 -74.50576 179.8 228.1)"/><ellipse fill="#fffdf5" cx="154" cy="82" rx="31" ry="51"/><ellipse rx="1" ry="1" transform="matrix(-62.75252 -34.07184 68.46858 -126.10344 36 51.1)"/><ellipse rx="1" ry="1" transform="rotate(75.6 67.5 177.1) scale(120.68901 40.10874)"/><path d="M-12.3 136.6L3.9-17.6l104.4 11-16.2 154.2z"/><path d="M72-10L271 0l-20 73z"/><ellipse fill="#e9efff" rx="1" ry="1" transform="rotate(112 14.6 145.7) scale(19.41449 47.32735)"/><ellipse fill="#928fa4" rx="1" ry="1" transform="rotate(-33.6 350.1 -2.7) scale(25.10043 46.74642)"/></g></svg>