<svg xmlns="http://www.w3.org/2000/svg" viewBox="0 0 724 724"><filter id="b"><feGaussianBlur stdDeviation="12" /></filter><path fill="#453731" d="M0 0h724v724H0z"/><g filter="url(#b)" transform="translate(1.4 1.4) scale(2.82813)" fill-opacity=".5"><ellipse fill="#ffe7c4" rx="1" ry="1" transform="matrix(10.59688 87.03383 -51.15264 6.22813 135.3 121.5)"/><ellipse fill="#fffffc" rx="1" ry="1" transform="rotate(3.3 -3908.3 1016) scale(20.36527 76.93563)"/><ellipse rx="1" ry="1" transform="matrix(-57.91934 -248.33516 52.15672 -12.16454 236.6 72.9)"/><ellipse cx="41" cy="71" rx="49" ry="84"/><ellipse fill="#fffffa" rx="1" ry="1" transform="matrix(-.35118 51.217 -15.7294 -.10785 205.8 224.8)"/><ellipse fill="#eac3b4" rx="1" ry="1" transform="rotate(95.7 -21.1 139.4) scale(20.06727 79.80976)"/><ellipse cx="5" cy="218" rx="29" ry="255"/><ellipse fill="#000005" rx="1" ry="1" transform="matrix(-12.31481 29.99365 -60.55736 -24.86368 129.6 233.9)"/></g></svg>