<svg xmlns="http://www.w3.org/2000/svg" viewBox="0 0 724 724"><filter id="b"><feGaussianBlur stdDeviation="12" /></filter><path fill="#433632" d="M0 0h724v724H0z"/><g filter="url(#b)" transform="translate(1.4 1.4) scale(2.82813)" fill-opacity=".5"><ellipse fill="#ffe4de" rx="1" ry="1" transform="matrix(-40.69053 47.47446 -77.75046 -66.6402 122.3 217.2)"/><ellipse fill="#ffd1b6" cx="116" cy="72" rx="28" ry="52"/><ellipse rx="1" ry="1" transform="matrix(55.12458 -16.11956 71.57 244.75034 215.5 57.4)"/><ellipse rx="1" ry="1" transform="matrix(-48.50906 -19.10823 89.92341 -228.28388 9.4 108.4)"/><ellipse fill="#390c00" rx="1" ry="1" transform="matrix(19.49611 2.2156 -4.07488 35.85685 89.5 150)"/><ellipse rx="1" ry="1" transform="matrix(29.12947 -.31237 .80816 75.36395 16.3 233.1)"/><ellipse cx="2" cy="80" rx="75" ry="75"/><path fill="#b39693" d="M190 148h20v99h-20z"/></g></svg>