<svg xmlns="http://www.w3.org/2000/svg" viewBox="0 0 724 724"><filter id="b"><feGaussianBlur stdDeviation="12" /></filter><path fill="#4c2d18" d="M0 0h724v724H0z"/><g filter="url(#b)" transform="translate(1.4 1.4) scale(2.82813)" fill-opacity=".5"><ellipse fill="#f48e40" rx="1" ry="1" transform="matrix(50.82423 -55.90634 59.40334 54.00334 93.9 179.1)"/><ellipse fill="#ffcbab" cx="104" cy="67" rx="31" ry="31"/><ellipse rx="1" ry="1" transform="rotate(-161.6 73.5 -5.2) scale(255 46.94797)"/><ellipse rx="1" ry="1" transform="matrix(-37.58338 82.389 -43.75005 -19.95745 26.3 55.5)"/><ellipse rx="1" ry="1" transform="rotate(-134.2 157 69.2) scale(79.19477 42.45119)"/><path fill="#ffdcba" d="M103 136l-6-41-64 103z"/><ellipse fill="#d37a34" rx="1" ry="1" transform="matrix(-7.32094 17.24706 -80.826 -34.3086 196.9 143.7)"/><path fill="#ffc6a3" d="M191.1 101.6l32.8 35.6-11.9-67-22.6 17.2z"/></g></svg>