<svg xmlns="http://www.w3.org/2000/svg" viewBox="0 0 76 31"><filter id="c"><feGaussianBlur stdDeviation="55" /></filter><path fill="#100607" d="M0 0h76v31H0z"/><g filter='url(#c)' fill-opacity='.5'><path fill="#b21221" fill-opacity=".5" d="M8.5 29.5l8-37-20-8z"/><path fill="#000100" fill-opacity=".5" d="M-15.5-13.8l25.7 25 6.3-26.7L70.8 26z"/><path fill="#ff0e28" fill-opacity=".5" d="M5.6 25l16.9-49.2 1 .3-17 49.1z"/><ellipse fill="#000605" fill-opacity=".5" rx="1" ry="1" transform="matrix(10.85602 19.80067 -33.6915 18.47188 44.3 13)"/><path fill="#d71729" fill-opacity=".5" d="M4.3 7.8L-4.4-7.8 9 26 5.8 11.9z"/><path fill-opacity=".5" d="M2.5-1.5l6 15 5-29z"/><path fill="#ff112a" fill-opacity=".5" d="M6.5 30.9l-.9-.4L8.5 24l.9.4z"/><path fill="#474847" fill-opacity=".5" d="M35.2 29h-1l-.4-19h1z"/></g></svg>