<svg xmlns="http://www.w3.org/2000/svg" viewBox="0 0 768 252"><filter id="c"><feGaussianBlur stdDeviation="55" /></filter><path fill="#483f3e" d="M0 0h768v252H0z"/><g filter='url(#c)' fill-opacity='.5'><ellipse fill="#fff" fill-opacity=".5" rx="1" ry="1" transform="rotate(-33.2 600.4 -807.4) scale(61.77615 104.18025)"/><ellipse fill="#eadde9" fill-opacity=".5" rx="1" ry="1" transform="matrix(57.81554 21.96206 -32.45618 85.4415 87.4 203.2)"/><ellipse fill="#0f0100" fill-opacity=".5" rx="1" ry="1" transform="matrix(.9135 130.8464 -764.98135 5.34066 374.5 1.5)"/><path fill="#e6bdb3" fill-opacity=".5" d="M352.5 28.5h54v225h-54z"/><ellipse fill="#ffd3c9" fill-opacity=".5" rx="1" ry="1" transform="matrix(-41.51918 6.0515 -18.26363 -125.30613 520.4 157.2)"/><ellipse fill="#ffdec4" fill-opacity=".5" rx="1" ry="1" transform="matrix(27.06842 1.9298 -4.08037 57.23324 252.9 94.6)"/><path fill="#ffd2b4" fill-opacity=".5" d="M155.9 69l3.1 59.9-59.9 3.1L96 72.1z"/><ellipse fill="#000001" fill-opacity=".5" rx="1" ry="1" transform="matrix(-154.89822 -169.6352 115.2979 -105.28145 724 63.5)"/></g></svg>