<?xml version="1.0" standalone="no"?>
<!DOCTYPE svg PUBLIC "-//W3C//DTD SVG 20010904//EN"
 "http://www.w3.org/TR/2001/REC-SVG-20010904/DTD/svg10.dtd">
<!--suppress ALL -->
<svg version="1.0" xmlns="http://www.w3.org/2000/svg"
 width="256.000000pt" height="256.000000pt" viewBox="0 0 256.000000 256.000000"
 preserveAspectRatio="xMidYMid meet">
<metadata>
Created by potrace 1.11, written by Peter Selinger 2001-2013
</metadata>
<g transform="translate(0.000000,256.000000) scale(0.100000,-0.100000)"
fill="#000000" stroke="none">
<path d="M1217 2544 c-1 -1 -31 -4 -67 -7 -36 -4 -76 -9 -90 -12 -14 -3 -39
-8 -57 -11 -117 -19 -326 -108 -443 -188 -118 -80 -264 -233 -341 -356 -36
-58 -73 -125 -83 -150 -28 -68 -76 -212 -81 -240 -3 -14 -9 -47 -14 -74 -5
-27 -8 -66 -7 -87 0 -22 -2 -39 -5 -39 -7 0 -3 -160 6 -237 28 -240 187 -559
365 -731 106 -103 121 -113 298 -202 111 -56 137 -67 166 -69 6 -1 1 -8 -10
-16 -18 -14 -17 -15 8 -4 20 9 34 9 55 0 15 -6 39 -14 53 -16 14 -3 39 -8 55
-11 67 -13 281 -24 299 -15 5 2 28 6 50 7 23 2 59 8 81 14 22 6 49 12 60 14
11 1 33 8 48 14 15 7 31 11 35 10 4 -1 20 4 35 10 16 7 33 9 39 6 7 -5 8 -2 3
6 -6 10 -4 12 8 7 10 -3 17 -2 17 3 0 6 7 10 15 10 27 0 95 32 89 42 -4 7 -9
7 -13 0 -3 -5 -24 -13 -46 -17 -22 -4 -44 -8 -50 -10 -5 -2 -20 -6 -32 -10
-13 -4 -23 -11 -23 -16 0 -5 -7 -6 -16 -2 -13 5 -13 7 -2 14 18 12 5 11 -26
-1 -17 -6 -26 -6 -26 1 0 6 -8 6 -21 -2 -12 -6 -30 -9 -40 -6 -10 3 -19 1 -19
-4 0 -5 -6 -9 -12 -9 -7 0 2 14 21 31 21 20 40 29 53 26 14 -4 17 -2 9 7 -8 9
-4 16 14 26 14 7 25 17 25 22 0 5 -4 7 -8 4 -4 -2 -14 -1 -22 5 -12 7 -11 9 5
10 11 1 23 1 28 0 4 0 7 3 7 9 0 5 -4 10 -10 10 -19 0 -10 18 13 24 16 4 19 8
9 15 -20 12 2 18 65 16 34 0 54 4 57 12 4 9 16 11 38 7 28 -6 31 -4 20 7 -7 8
-27 12 -46 11 -19 -2 -37 2 -42 9 -4 8 -3 10 4 5 7 -4 12 -2 12 3 0 6 -10 11
-22 11 -18 1 -15 5 16 20 55 28 56 31 7 26 -35 -3 -41 -1 -39 13 2 9 11 15 21
15 9 -1 17 4 17 12 0 8 -9 14 -21 14 -19 0 -19 1 -4 16 13 14 23 14 57 6 42
-11 82 -2 59 13 -15 8 15 34 40 35 9 0 22 7 29 15 10 13 9 15 -9 15 -11 0 -21
5 -21 10 0 6 -9 10 -20 10 -18 0 -19 3 -9 21 9 17 13 19 20 8 7 -11 9 -10 9 4
0 10 8 18 20 18 11 1 28 2 38 2 9 1 22 8 28 16 8 10 21 12 50 7 l38 -8 -24 20
c-34 28 -22 34 36 19 27 -7 60 -10 74 -7 14 4 35 3 47 -1 13 -5 25 -4 28 1 4
6 3 10 -2 11 -45 4 -75 17 -68 28 3 6 -4 9 -15 8 -11 -1 -20 -5 -20 -9 0 -4
-5 -8 -11 -8 -5 0 -7 6 -3 13 5 8 4 9 -5 2 -16 -16 -84 -6 -77 10 2 7 -2 16
-10 19 -34 13 1 28 57 24 33 -2 59 0 59 5 0 5 -7 6 -16 3 -14 -5 -15 -4 -4 9
8 10 21 13 37 9 17 -5 24 -3 23 7 -4 26 0 40 9 35 5 -4 7 3 4 14 -4 16 -2 19
13 14 18 -6 18 -6 0 8 -11 9 -16 20 -12 27 6 9 11 9 22 0 8 -7 33 -12 55 -11
26 1 38 -2 34 -9 -4 -5 16 2 43 16 34 18 60 25 81 22 27 -5 31 -2 40 26 28 86
46 223 42 318 -1 29 -45 58 -55 36 -2 -7 -5 -2 -5 11 -1 24 -6 27 -61 36 -28
5 -39 14 -57 46 -19 35 -19 40 -5 41 14 0 13 2 -2 8 -26 10 -30 54 -4 48 10
-3 18 -1 18 3 0 5 -17 12 -37 16 -45 8 -77 23 -68 32 3 3 -9 14 -27 24 -23 12
-27 17 -14 18 16 0 16 2 -5 20 -13 10 -18 19 -11 20 21 0 13 16 -9 17 -12 1
-27 7 -33 14 -8 9 -2 10 29 5 63 -11 101 -15 87 -9 -6 2 -10 8 -7 13 3 4 -10
7 -28 6 -17 -2 -38 2 -46 8 -8 6 -16 10 -17 9 -2 -2 -18 0 -35 4 -19 4 -26 9
-18 13 6 4 25 4 40 0 17 -5 31 -5 34 1 6 8 -15 13 -40 10 -5 -1 -2 5 8 13 14
10 15 15 5 19 -10 4 -10 6 0 6 6 1 12 8 12 16 0 11 7 14 25 9 20 -5 24 -3 19
10 -4 9 0 18 9 22 8 3 15 16 15 29 0 21 -4 23 -48 20 -26 -1 -52 -5 -58 -9 -6
-3 -14 4 -18 16 -4 13 -15 29 -26 36 -25 18 -15 30 19 25 l28 -4 -30 15 c-17
8 -23 15 -14 15 30 2 17 31 -13 31 -16 0 -27 4 -23 9 3 5 1 12 -5 16 -5 3 -10
11 -10 16 0 6 5 7 10 4 6 -3 10 -1 10 6 0 7 -8 9 -21 6 -21 -6 -68 10 -80 26
-3 4 -10 7 -15 6 -26 -4 -54 3 -75 20 -22 17 -22 19 -4 18 28 -1 75 24 75 40
0 7 5 13 10 13 15 0 12 19 -5 37 -8 8 -13 19 -10 24 4 5 -3 9 -15 9 -42 0 -79
37 -52 53 4 2 3 3 -3 2 -19 -4 -55 15 -55 29 0 7 -7 16 -15 20 -9 3 -15 0 -15
-8 0 -12 -6 -12 -30 -3 -28 11 -29 13 -13 24 15 12 15 13 -5 13 -12 0 -38 9
-59 20 -21 11 -56 22 -78 25 -56 8 -105 25 -105 35 0 5 -15 12 -32 15 -30 6
-186 13 -191 9z"/>
<path d="M1852 2338 c3 -7 13 -15 23 -17 17 -3 17 -2 3 13 -20 19 -31 21 -26
4z"/>
<path d="M2235 1630 c-3 -6 1 -7 9 -4 18 7 21 14 7 14 -6 0 -13 -4 -16 -10z"/>
<path d="M2440 1401 c0 -5 5 -13 10 -16 6 -3 10 -2 10 4 0 5 -4 13 -10 16 -5
3 -10 2 -10 -4z"/>
<path d="M2392 960 c0 -14 2 -19 5 -12 2 6 2 18 0 25 -3 6 -5 1 -5 -13z"/>
<path d="M2312 940 c0 -14 2 -19 5 -12 2 6 2 18 0 25 -3 6 -5 1 -5 -13z"/>
<path d="M2286 937 c3 -10 9 -15 12 -12 3 3 0 11 -7 18 -10 9 -11 8 -5 -6z"/>
<path d="M2190 911 c0 -25 6 -27 13 -6 4 8 2 17 -3 20 -6 4 -10 -3 -10 -14z"/>
<path d="M2228 902 c-10 -2 -18 -8 -18 -13 0 -9 8 -11 48 -12 17 0 20 -3 11
-13 -6 -8 -15 -12 -19 -9 -5 3 -11 2 -14 -3 -3 -5 7 -8 22 -9 15 0 37 -3 50
-7 13 -5 22 -3 22 3 0 6 -9 11 -21 11 -11 0 -17 5 -14 10 4 6 12 7 18 4 7 -4
5 0 -3 8 -21 20 -61 35 -82 30z"/>
<path d="M2346 842 c-3 -6 1 -13 10 -16 14 -5 14 -9 3 -24 -13 -15 -12 -16 4
-3 14 11 15 17 5 30 -7 9 -13 17 -14 19 -1 2 -5 -1 -8 -6z"/>
<path d="M2255 770 c4 -6 11 -8 16 -5 14 9 11 15 -7 15 -8 0 -12 -5 -9 -10z"/>
<path d="M2317 722 c-14 -15 -14 -19 -3 -19 8 0 17 9 19 19 3 10 4 18 3 18 -2
0 -10 -8 -19 -18z"/>
<path d="M2040 720 c0 -5 5 -10 10 -10 6 0 10 5 10 10 0 6 -4 10 -10 10 -5 0
-10 -4 -10 -10z"/>
<path d="M1952 691 c-2 -30 -2 -30 30 -19 18 6 27 13 20 16 -6 2 -14 2 -16 0
-3 -2 -11 5 -18 15 -13 17 -14 16 -16 -12z"/>
<path d="M2075 709 c-4 -6 -5 -12 -2 -15 2 -3 7 2 10 11 7 17 1 20 -8 4z"/>
<path d="M1901 687 c2 -2 11 -8 20 -15 12 -9 16 -9 16 1 0 7 -9 14 -20 14 -11
1 -18 1 -16 0z"/>
<path d="M2266 625 c-3 -8 -1 -15 4 -15 13 0 22 18 11 24 -5 3 -11 -1 -15 -9z"/>
<path d="M1750 360 c0 -5 5 -10 10 -10 6 0 10 5 10 10 0 6 -4 10 -10 10 -5 0
-10 -4 -10 -10z"/>
<path d="M626 118 c3 -5 10 -6 15 -3 13 9 11 12 -6 12 -8 0 -12 -4 -9 -9z"/>
</g>
</svg>
