<svg xmlns="http://www.w3.org/2000/svg" viewBox="0 0 724 724"><filter id="b"><feGaussianBlur stdDeviation="12" /></filter><path fill="#3e3736" d="M0 0h724v724H0z"/><g filter="url(#b)" transform="translate(1.4 1.4) scale(2.82813)" fill-opacity=".5"><ellipse fill="#fffaf0" rx="1" ry="1" transform="matrix(-38.58426 9.54395 -27.28185 -110.29497 156.6 144.6)"/><ellipse rx="1" ry="1" transform="matrix(91.74001 -231.70883 57.78585 22.87904 19.4 94)"/><ellipse rx="1" ry="1" transform="matrix(36.20339 -30.713 135.93667 160.23729 216 55.7)"/><ellipse fill="#ffe0cc" rx="1" ry="1" transform="rotate(-63.5 248.1 44) scale(16.29341 57.84273)"/><ellipse fill="#9393a3" rx="1" ry="1" transform="matrix(48.32336 43.05454 -20.11876 22.5808 105.4 181.3)"/><ellipse cx="241" cy="204" rx="27" ry="255"/><ellipse cx="178" cy="145" rx="15" ry="28"/><ellipse fill="#d1dbee" rx="1" ry="1" transform="matrix(-11.95458 -2.0864 6.11017 -35.00972 206.2 159.3)"/></g></svg>