<svg xmlns="http://www.w3.org/2000/svg" viewBox="0 0 724 724"><filter id="b"><feGaussianBlur stdDeviation="12" /></filter><path fill="#1e1a19" d="M0 0h724v724H0z"/><g filter="url(#b)" transform="translate(1.4 1.4) scale(2.82813)" fill-opacity=".5"><ellipse fill="#a68e8a" rx="1" ry="1" transform="matrix(-14.16464 125.10008 -44.65264 -5.05586 131.7 144.7)"/><ellipse fill="#ffdfc0" rx="1" ry="1" transform="matrix(18.61931 2.15433 -5.06498 43.7753 142.1 64.1)"/><path d="M165 0h91v256h-91z"/><ellipse rx="1" ry="1" transform="matrix(88.93462 -238.98877 56.65874 21.08435 49.5 69.4)"/><ellipse fill="#594e50" cx="164" cy="185" rx="19" ry="96"/><path fill="#fdffff" d="M134.2 65.3l23 43.3-11.4 6-23-43.2z"/><ellipse fill="#5f5356" rx="1" ry="1" transform="matrix(16.02543 -45.00608 29.88762 10.64216 104.7 122)"/><path d="M185 103l-74-52 113 40z"/></g></svg>