<svg xmlns="http://www.w3.org/2000/svg" viewBox="0 0 724 724"><filter id="b"><feGaussianBlur stdDeviation="12" /></filter><path fill="#110e0e" d="M0 0h724v724H0z"/><g filter="url(#b)" transform="translate(1.4 1.4) scale(2.82813)" fill-opacity=".5"><ellipse fill="#dfc1bb" rx="1" ry="1" transform="matrix(11.40956 -64.40896 21.70357 3.84462 119 78.1)"/><path fill="#ffcca9" d="M74 207h31v18H74z"/><ellipse fill="#ffc29f" cx="122" cy="44" rx="21" ry="24"/><path d="M0 0h104v105H0z"/><path fill="#514855" d="M179 82l-95 28-17 102z"/><path fill="#c6e0f3" d="M102.7 134l26.6-42.6-23.8.3-12.7 49z"/><path d="M-16 20.6L260.1-16l9.5 236.5L111-2.5z"/><path d="M115 71.5l33.3 35.5L15.2-16l-26 287z"/></g></svg>