<svg xmlns="http://www.w3.org/2000/svg" viewBox="0 0 724 724"><filter id="b"><feGaussianBlur stdDeviation="12" /></filter><path fill="#454142" d="M0 0h724v724H0z"/><g filter="url(#b)" transform="translate(1.4 1.4) scale(2.82813)" fill-opacity=".5"><ellipse fill="#e8e5ee" rx="1" ry="1" transform="matrix(-83.68653 37.4348 -32.27397 -72.14935 101.2 188.2)"/><ellipse rx="1" ry="1" transform="rotate(-20.1 351.8 -599.2) scale(62.58304 191.19243)"/><ellipse rx="1" ry="1" transform="matrix(130.34832 -111.72202 38.46432 44.8771 35 55.8)"/><path fill="#ffc095" d="M159.7 60.4l-64.8 2.3 9.2 65.5 51.6-18z"/><path fill="#cacbd7" d="M184.3 140l49 107.9-12.8 19.6-37.2-58.3z"/><path d="M157 0h99v135h-99z"/><ellipse cx="27" cy="52" rx="73" ry="73"/><path d="M-16-12L52 2 2 251z"/></g></svg>