<svg xmlns="http://www.w3.org/2000/svg" viewBox="0 0 724 724"><filter id="b"><feGaussianBlur stdDeviation="12" /></filter><path fill="#42423f" d="M0 0h724v724H0z"/><g filter="url(#b)" transform="translate(1.4 1.4) scale(2.82813)" fill-opacity=".5"><ellipse fill="#eef3eb" cx="122" cy="182" rx="82" ry="105"/><ellipse rx="1" ry="1" transform="matrix(-8.45154 60.82395 -251.21862 -34.90703 147.6 39.5)"/><ellipse rx="1" ry="1" transform="rotate(176.5 115.5 78.5) scale(35.15807 255.00002)"/><ellipse rx="1" ry="1" transform="matrix(-37.0678 168.62214 -28.6474 -6.29749 23.3 122.1)"/><ellipse fill="#e7b08c" rx="1" ry="1" transform="matrix(18.43686 -3.98619 8.68586 40.17368 117.9 72.8)"/><ellipse fill="#000005" rx="1" ry="1" transform="rotate(22.6 -492 505.6) scale(11.06843 35.86069)"/><path fill="#ede5ce" d="M19.3 263.2l20.2 7.8L50 169.4l-11 5.5z"/><ellipse fill="#e5e5de" rx="1" ry="1" transform="matrix(13.3491 25.00835 -31.66414 16.90186 89.9 114.8)"/></g></svg>