<svg xmlns="http://www.w3.org/2000/svg" viewBox="0 0 724 724"><filter id="b"><feGaussianBlur stdDeviation="12" /></filter><path fill="#1a1411" d="M0 0h724v724H0z"/><g filter="url(#b)" transform="translate(1.4 1.4) scale(2.82813)" fill-opacity=".5"><ellipse fill="#ffeecb" rx="1" ry="1" transform="matrix(8.12254 129.11022 -16.9241 1.06472 131.5 147)"/><ellipse fill="#ff8b37" rx="1" ry="1" transform="rotate(-168.8 67.8 22) scale(25.84278 26.59999)"/><ellipse rx="1" ry="1" transform="matrix(60.81457 182.91331 -56.30381 18.71975 43.5 91.9)"/><ellipse fill="#cbc4c8" cx="135" cy="214" rx="12" ry="109"/><ellipse rx="1" ry="1" transform="matrix(56.4619 -6.7976 28.40585 235.94363 218.3 113.6)"/><ellipse cx="85" cy="14" rx="255" ry="20"/><path fill="#c47540" d="M109 31h38v83h-38z"/><ellipse rx="1" ry="1" transform="matrix(-51.82036 249.6791 -54.97617 -11.41019 48.6 54.1)"/></g></svg>