<svg xmlns="http://www.w3.org/2000/svg" viewBox="0 0 96 96"><filter id="b"><feGaussianBlur stdDeviation="12" /></filter><path fill="#1d1d1d" d="M0 0h96v96H0z"/><g filter="url(#b)" transform="translate(.5 .5)" fill-opacity=".5"><path fill="#929193" d="M45.7 40.8l14.5-12.2L41 26.4l1.4 14.9z"/><ellipse fill="#9b9a9b" cx="49" cy="48" rx="19" ry="3"/><path fill="#6d6d6d" d="M97 75l-64.5 36-.2-17 28.1-2.2z"/><path fill="#4f4f4f" d="M-7.5 45.7l18.3 32-.3-35.4 24 46.4z"/><path fill="#858485" d="M57 1L55-9 22 7z"/><path d="M68 79L53 16l31 20zM39 33L-8-16l36 95z"/><path fill="#a0a0a0" d="M29.7 2.6l.7.7-20.1 18.1-.7-.7z"/></g></svg>