<svg xmlns="http://www.w3.org/2000/svg" viewBox="0 0 724 724"><filter id="b"><feGaussianBlur stdDeviation="12" /></filter><path fill="#4c484c" d="M0 0h724v724H0z"/><g filter="url(#b)" transform="translate(1.4 1.4) scale(2.82813)" fill-opacity=".5"><path fill="#fff" d="M148 11l64 243-194 17z"/><ellipse rx="1" ry="1" transform="matrix(-103.66103 232.97938 -57.48694 -25.57804 25.3 97.1)"/><ellipse rx="1" ry="1" transform="matrix(47.78224 250.48325 -58.47764 11.1552 233.6 57.6)"/><ellipse fill="#fff" cx="120" cy="168" rx="61" ry="61"/><ellipse cx="230" cy="161" rx="30" ry="255"/><ellipse rx="1" ry="1" transform="matrix(15.43582 40.21169 -219.34161 84.19736 19.9 42.5)"/><ellipse rx="1" ry="1" transform="matrix(31.30958 19.41276 -11.5595 18.64356 97.1 87.8)"/><ellipse rx="1" ry="1" transform="rotate(21.9 -474.1 180.4) scale(17.4537 136.10513)"/></g></svg>