<svg xmlns="http://www.w3.org/2000/svg" viewBox="0 0 724 724"><filter id="b"><feGaussianBlur stdDeviation="12" /></filter><path fill="#423631" d="M0 0h724v724H0z"/><g filter="url(#b)" transform="translate(1.4 1.4) scale(2.82813)" fill-opacity=".5"><ellipse fill="#d5b1a6" rx="1" ry="1" transform="rotate(-173.6 74.9 85.7) scale(61.54966 156.81828)"/><ellipse rx="1" ry="1" transform="matrix(92.61016 13.50047 -22.2928 152.9235 13.5 116.6)"/><ellipse rx="1" ry="1" transform="matrix(62.94122 -2.85814 9.35873 206.0953 243.3 86.4)"/><ellipse fill="#a2cbff" rx="1" ry="1" transform="matrix(-11.96474 59.44174 -49.47614 -9.95882 114 244.8)"/><ellipse fill="#bd7e54" cx="186" cy="103" rx="36" ry="36"/><ellipse fill="#a47957" rx="1" ry="1" transform="matrix(-16.22536 -.83767 3.83907 -74.36136 72.8 130.5)"/><path fill="#ffcba9" d="M141 131l-33-74 31-14 33 74z"/><ellipse rx="1" ry="1" transform="matrix(-3.4205 17.43443 -143.75838 -28.20427 176.3 10.1)"/></g></svg>