<svg xmlns="http://www.w3.org/2000/svg" viewBox="0 0 724 724"><filter id="b"><feGaussianBlur stdDeviation="12" /></filter><path fill="#1e1a1d" d="M0 0h724v724H0z"/><g filter="url(#b)" transform="translate(1.4 1.4) scale(2.82813)" fill-opacity=".5"><ellipse fill="#ffeecf" rx="1" ry="1" transform="matrix(-28.33296 -3.02792 7.36775 -68.94174 128.6 100.5)"/><path fill="#ffc4b3" d="M158 40l-44-1 24 160z"/><ellipse rx="1" ry="1" transform="matrix(-93.05207 -187.47809 38.43614 -19.07723 214.9 77.3)"/><ellipse rx="1" ry="1" transform="matrix(-84.23774 240.68445 -65.06488 -22.77222 30 58.9)"/><path fill="#5f3937" d="M97 65h34v153H97z"/><ellipse fill="#3d4866" rx="1" ry="1" transform="matrix(13.66491 -2.63789 17.1416 88.79765 219.7 213.7)"/><ellipse rx="1" ry="1" transform="matrix(-52.37805 25.71845 -84.08664 -171.2504 195.5 0)"/><ellipse fill="#371c09" cx="126" cy="69" rx="41" ry="5"/></g></svg>