<svg xmlns="http://www.w3.org/2000/svg" viewBox="0 0 724 724"><filter id="b"><feGaussianBlur stdDeviation="12" /></filter><path fill="#100d0e" d="M0 0h724v724H0z"/><g filter="url(#b)" transform="translate(1.4 1.4) scale(2.82813)" fill-opacity=".5"><ellipse fill="#fff0d0" rx="1" ry="1" transform="matrix(25.81507 -1.0988 1.67658 39.38905 116.8 61)"/><ellipse fill="#f1b8a0" rx="1" ry="1" transform="matrix(-10.87456 13.29062 -17.20561 -14.07786 111.4 235.2)"/><ellipse fill="#ffebd9" cx="117" cy="41" rx="23" ry="16"/><ellipse fill="#b97e67" rx="1" ry="1" transform="rotate(170.9 21.8 120.5) scale(13.3128 15.3354)"/><ellipse cx="219" cy="33" rx="73" ry="252"/><ellipse rx="1" ry="1" transform="matrix(-57.58403 -10.361 23.03344 -128.0145 31.4 89.8)"/><path fill="#daaf9b" d="M115.5 119.8l-12.6 21.4-4.4-19.7 13-6.4z"/><ellipse fill="#170200" rx="1" ry="1" transform="rotate(88.5 40.2 101.4) scale(3.52066 88.80309)"/></g></svg>