<svg xmlns="http://www.w3.org/2000/svg" viewBox="0 0 724 724"><filter id="b"><feGaussianBlur stdDeviation="12" /></filter><path fill="#221c1a" d="M0 0h724v724H0z"/><g filter="url(#b)" transform="translate(1.4 1.4) scale(2.82813)" fill-opacity=".5"><ellipse fill="#ffdfca" rx="1" ry="1" transform="matrix(27.64492 -.29494 .46232 43.33345 120 67.5)"/><ellipse fill="#ffe5d9" rx="1" ry="1" transform="matrix(14.52188 -55.51386 13.9753 3.6558 48 172.7)"/><ellipse fill="#eeb6a8" rx="1" ry="1" transform="matrix(-44.44174 -23.92941 10.22674 -18.99312 183.2 183.2)"/><ellipse cx="23" cy="58" rx="72" ry="72"/><ellipse cx="205" cy="69" rx="67" ry="117"/><ellipse fill="#ffd6bd" rx="1" ry="1" transform="matrix(3.25997 24.41841 -12.00532 1.60276 207.3 182.6)"/><ellipse fill="#e6ac9e" rx="1" ry="1" transform="rotate(-66.7 182 66.3) scale(26.18441 15.55261)"/><ellipse fill="#ffbfb1" rx="1" ry="1" transform="matrix(-13.78751 22.65559 -9.04827 -5.5065 61.1 139.3)"/></g></svg>